<svg width="28" height="28" viewBox="0 0 28 28" fill="none" xmlns="http://www.w3.org/2000/svg">
<g clip-path="url(#clip0_1_1301)">
<path fill-rule="evenodd" clip-rule="evenodd" d="M26.404 19.7216L25.9852 18.7222L25.3457 17.3044L25.3188 17.2775C23.376 13.0435 21.3304 8.85731 19.1839 4.72282L19.098 4.55633L18.4373 3.22399C18.1636 2.67873 17.8283 2.16667 17.4379 1.69784C17.0138 1.16343 16.4735 0.732754 15.8579 0.43855C15.2424 0.144346 14.5679 -0.00563855 13.8857 7.42133e-07C13.2075 0.00231169 12.538 0.152466 11.9237 0.440002C11.3095 0.727539 10.7653 1.14554 10.3292 1.66489C9.94827 2.14066 9.61363 2.6517 9.3298 3.19104L8.57756 4.66299C6.42882 8.83171 4.35465 13.049 2.43699 17.2177L2.41011 17.2715C2.24362 17.728 2.02337 18.195 1.79748 18.6953C1.65787 18.9997 1.51827 19.3326 1.37866 19.6947C1.02435 20.6517 0.91002 21.6809 1.04568 22.6923C1.19523 23.708 1.60682 24.6673 2.23989 25.4755C2.87295 26.2837 3.70566 26.9131 4.65597 27.3016C5.3684 27.601 6.13424 27.7527 6.90704 27.7473C7.14777 27.7431 7.38807 27.7251 7.62676 27.6935C8.60673 27.5686 9.5514 27.2471 10.4042 26.7483C11.6997 25.9758 12.8624 25 13.848 23.8582C14.8395 24.9939 16.0013 25.9688 17.2918 26.7483C18.1445 27.2472 19.0892 27.5687 20.0692 27.6935C20.3077 27.7252 20.5483 27.7429 20.7889 27.7473C21.562 27.7551 22.3281 27.6033 23.04 27.3016C23.9903 26.9131 24.823 26.2837 25.4561 25.4755C26.0891 24.6673 26.5007 23.708 26.6503 22.6923C26.855 21.6985 26.7674 20.6666 26.3979 19.7216H26.404ZM13.8853 21.1666C12.3864 19.2754 11.4139 17.503 11.081 15.9985C10.9448 15.4449 10.9162 14.8713 10.9951 14.3063C11.0502 13.8879 11.2032 13.4886 11.4408 13.1357C11.7188 12.7491 12.0865 12.4356 12.5122 12.2223C12.938 12.009 13.4091 11.9021 13.8853 11.9109C14.8547 11.8736 15.7765 12.3332 16.3297 13.1305C16.5682 13.4787 16.7209 13.8783 16.7754 14.2968C16.855 14.8612 16.8259 15.4356 16.6896 15.989C16.3566 17.4609 15.3889 19.2125 13.8853 21.1571V21.1666ZM24.968 22.4673C24.7513 23.9141 23.7974 25.1407 22.4378 25.6909C21.7737 25.9717 21.0485 26.0771 20.3319 25.997C19.5861 25.9048 18.8673 25.6598 18.2205 25.2773C17.0284 24.5576 15.96 23.6507 15.0563 22.5913C16.8881 20.3403 18.0046 18.2934 18.4195 16.4507C18.6002 15.6765 18.6474 14.8771 18.5591 14.0869C18.4559 13.4076 18.1984 12.7602 17.8069 12.1957C16.9128 10.9202 15.4426 10.1727 13.8853 10.2026C12.3366 10.1827 10.8755 10.918 9.96887 12.1741C9.57736 12.739 9.31983 13.3854 9.21664 14.0653C9.09928 14.8544 9.14682 15.6593 9.35625 16.4291C9.77507 18.2609 10.914 20.3455 12.7194 22.5965C11.822 23.6621 10.7525 24.57 9.55525 25.2825C8.90857 25.6733 8.18783 25.9258 7.43859 26.0238C6.72254 26.1031 5.99796 26.0073 5.32713 25.7446C3.97137 25.1988 3.00886 23.9727 2.79641 22.5254C2.7085 21.7993 2.79501 21.0627 3.04875 20.3767C3.13459 20.0975 3.269 19.8391 3.40861 19.4905C3.60198 19.0448 3.82743 18.5713 4.04812 18.1031L4.075 18.0493C5.99309 13.9131 8.04515 9.69017 10.1883 5.57477L10.2689 5.3762L10.9349 4.09719C11.1511 3.65627 11.4198 3.24312 11.7352 2.86673C12.0091 2.54511 12.3496 2.28682 12.7332 2.10969C13.1167 1.93256 13.5341 1.84082 13.9566 1.84082C14.379 1.84082 14.7965 1.93256 15.18 2.10969C15.5635 2.28682 15.904 2.54511 16.178 2.86673C16.4782 3.24156 16.7325 3.65102 16.9354 4.08635L17.6013 5.36536L17.682 5.53185C19.7934 9.67369 21.8563 13.891 23.7692 18.0333V18.0601C23.9895 18.5058 24.1881 19.0053 24.4087 19.4475C24.5484 19.7805 24.688 20.0602 24.7686 20.3337C24.9993 21.0252 25.0655 21.761 24.962 22.4825L24.968 22.4673Z" fill="white"/>
</g>
<defs>
<clipPath id="clip0_1_1301">
<rect width="27.7481" height="27.7481" fill="white"/>
</clipPath>
</defs>
</svg>
