<svg width="29" height="24" viewBox="0 0 29 24" fill="none" xmlns="http://www.w3.org/2000/svg">
<rect width="29" height="24" fill="#E5E5E5"/>
<g clip-path="url(#clip0_0_1)">
<rect width="1440" height="900" transform="translate(-109 -14)" fill="white"/>
<path d="M28.5537 3.17131C27.51 3.63381 26.3888 3.94631 25.21 4.08756C26.4125 3.36756 27.335 2.22506 27.77 0.865063C26.645 1.53256 25.3988 2.01756 24.0725 2.27756C23.01 1.14756 21.4975 0.440063 19.8225 0.440063C16.6075 0.440063 14 3.04756 14 6.26506C14 6.72006 14.0525 7.16256 14.15 7.59006C9.30875 7.34631 5.02 5.02756 2.1475 1.50506C1.6475 2.36756 1.36 3.36756 1.36 4.43256C1.36 6.45256 2.38875 8.23631 3.95 9.28006C2.995 9.24881 2.0975 8.98756 1.3125 8.55131V8.62631C1.3125 11.4476 3.31875 13.8013 5.98375 14.3363C5.49375 14.4688 4.98 14.5388 4.45 14.5388C4.075 14.5388 3.70875 14.5038 3.35375 14.4363C4.095 16.7488 6.245 18.4338 8.79375 18.4788C6.8 20.0413 4.28875 20.9726 1.56125 20.9726C1.09125 20.9726 0.627499 20.9451 0.171249 20.8913C2.74875 22.5451 5.80875 23.5076 9.09625 23.5076C19.8087 23.5076 25.665 14.6351 25.665 6.94006C25.665 6.69006 25.6588 6.43756 25.6475 6.18756C26.785 5.36506 27.7725 4.34131 28.5513 3.17506L28.5537 3.17131Z" fill="#1DA1F2"/>
</g>
<defs>
<clipPath id="clip0_0_1">
<rect width="1440" height="900" fill="white" transform="translate(-109 -14)"/>
</clipPath>
</defs>
</svg>
